{
  "accessors": [
    {
      "bufferView": 2,
      "componentType": 5126,
      "count": 10304,
      "max": [
        80.56708526611328,
        76.26805114746094,
        99.77276611328125
      ],
      "min": [
        -76.12651062011719,
        -74.13534545898438,
        -99.77276611328125
      ],
      "type": "VEC3"
    },
    {
      "bufferView": 2,
      "byteOffset": 123648,
      "componentType": 5126,
      "count": 10304,
      "max": [
        0.9999904036521912,
        1.0,
        0.9999974370002747
      ],
      "min": [
        -0.9999998807907104,
        -0.9999966621398926,
        -0.9999973773956299
      ],
      "type": "VEC3"
    },
    {
      "bufferView": 1,
      "componentType": 5126,
      "count": 10304,
      "max": [
        0.8750002384185791,
        0.6250001788139343
      ],
      "min": [
        0.1250000149011612,
        0.1250000149011612
      ],
      "type": "VEC2"
    },
    {
      "bufferView": 0,
      "componentType": 5125,
      "count": 56832,
      "type": "SCALAR"
    },
    {
      "bufferView": 2,
      "byteOffset": 247296,
      "componentType": 5126,
      "count": 4905,
      "max": [
        188.52374267578125,
        106.6041259765625,
        148.1291961669922
      ],
      "min": [
        -54.25120162963867,
        -79.41613006591797,
        -148.12921142578125
      ],
      "type": "VEC3"
    },
    {
      "bufferView": 2,
      "byteOffset": 306156,
      "componentType": 5126,
      "count": 4905,
      "max": [
        0.9997937679290771,
        0.9999940991401672,
        0.9991474747657776
      ],
      "min": [
        -1.0,
        -0.9999176859855652,
        -0.9991474151611328
      ],
      "type": "VEC3"
    },
    {
      "bufferView": 1,
      "byteOffset": 82432,
      "componentType": 5126,
      "count": 4905,
      "max": [
        0.8750002384185791,
        0.6250001788139343
      ],
      "min": [
        0.1250000149011612,
        0.1250000149011612
      ],
      "type": "VEC2"
    },
    {
      "bufferView": 0,
      "byteOffset": 227328,
      "componentType": 5125,
      "count": 24480,
      "type": "SCALAR"
    },
    {
      "bufferView": 2,
      "byteOffset": 365016,
      "componentType": 5126,
      "count": 1077,
      "max": [
        86.2588119506836,
        -13.836267471313477,
        37.9906120300293
      ],
      "min": [
        56.82518005371094,
        -68.58204650878906,
        -37.99061584472656
      ],
      "type": "VEC3"
    },
    {
      "bufferView": 2,
      "byteOffset": 377940,
      "componentType": 5126,
      "count": 1077,
      "max": [
        0.9999430775642395,
        0.9976762533187866,
        0.9650119543075562
      ],
      "min": [
        -0.9994182586669922,
        -0.999671995639801,
        -0.9650130271911621
      ],
      "type": "VEC3"
    },
    {
      "bufferView": 1,
      "byteOffset": 121672,
      "componentType": 5126,
      "count": 1077,
      "max": [
        0.5000001192092896,
        0.6250000596046448
      ],
      "min": [
        0.3750000596046448,
        0.5625000596046448
      ],
      "type": "VEC2"
    },
    {
      "bufferView": 0,
      "byteOffset": 325248,
      "componentType": 5125,
      "count": 6144,
      "type": "SCALAR"
    },
    {
      "bufferView": 2,
      "byteOffset": 390864,
      "componentType": 5126,
      "count": 2547,
      "max": [
        88.9555435180664,
        92.79837036132813,
        54.55185317993164
      ],
      "min": [
        36.837215423583984,
        -46.1411247253418,
        -54.55184555053711
      ],
      "type": "VEC3"
    },
    {
      "bufferView": 2,
      "byteOffset": 421428,
      "componentType": 5126,
      "count": 2547,
      "max": [
        0.9998739957809448,
        0.9436574578285217,
        0.9956752061843872
      ],
      "min": [
        -0.9997526407241821,
        -0.9999528527259827,
        -0.9956750869750977
      ],
      "type": "VEC3"
    },
    {
      "bufferView": 1,
      "byteOffset": 130288,
      "componentType": 5126,
      "count": 2547,
      "max": [
        0.6250000596046448,
        0.6250000596046448
      ],
      "min": [
        0.4375,
        0.5
      ],
      "type": "VEC2"
    },
    {
      "bufferView": 0,
      "byteOffset": 349824,
      "componentType": 5125,
      "count": 14592,
      "type": "SCALAR"
    },
    {
      "bufferView": 2,
      "byteOffset": 451992,
      "componentType": 5126,
      "count": 2178,
      "max": [
        14.776541709899902,
        61.45912551879883,
        96.39282989501953
      ],
      "min": [
        2.1763710975646973,
        8.694405555725098,
        -96.39282989501953
      ],
      "type": "VEC3"
    },
    {
      "bufferView": 2,
      "byteOffset": 478128,
      "componentType": 5126,
      "count": 2178,
      "max": [
        0.9999433159828186,
        0.9933962821960449,
        0.9923804402351379
      ],
      "min": [
        -0.9995418787002563,
        -0.9886513352394104,
        -0.9923799633979797
      ],
      "type": "VEC3"
    },
    {
      "bufferView": 1,
      "byteOffset": 150664,
      "componentType": 5126,
      "count": 2178,
      "max": [
        0.622395932674408,
        0.43750014901161194
      ],
      "min": [
        0.5026043057441711,
        0.4375
      ],
      "type": "VEC2"
    },
    {
      "bufferView": 0,
      "byteOffset": 408192,
      "componentType": 5125,
      "count": 12288,
      "type": "SCALAR"
    },
    {
      "bufferView": 2,
      "byteOffset": 504264,
      "componentType": 5126,
      "count": 713,
      "max": [
        91.66667175292969,
        62.85514831542969,
        91.9753189086914
      ],
      "min": [
        -91.66667175292969,
        -55.504608154296875,
        -91.9753189086914
      ],
      "type": "VEC3"
    },
    {
      "bufferView": 2,
      "byteOffset": 512820,
      "componentType": 5126,
      "count": 713,
      "max": [
        0.9999986886978149,
        1.0,
        0.9999988675117493
      ],
      "min": [
        -0.9999986886978149,
        -1.0,
        -0.9999988675117493
      ],
      "type": "VEC3"
    },
    {
      "bufferView": 1,
      "byteOffset": 168088,
      "componentType": 5126,
      "count": 713,
      "max": [
        0.8750001192092896,
        1.0000001192092896
      ],
      "min": [
        0.125,
        0.0
      ],
      "type": "VEC2"
    },
    {
      "bufferView": 0,
      "byteOffset": 457344,
      "componentType": 5125,
      "count": 3840,
      "type": "SCALAR"
    },
    {
      "bufferView": 2,
      "byteOffset": 521376,
      "componentType": 5126,
      "count": 648,
      "max": [
        147.3360595703125,
        88.474609375,
        94.302490234375
      ],
      "min": [
        -147.33615112304688,
        -4.736884117126465,
        -41.41591262817383
      ],
      "type": "VEC3"
    },
    {
      "bufferView": 2,
      "byteOffset": 529152,
      "componentType": 5126,
      "count": 648,
      "max": [
        0.9069879651069641,
        0.9361924529075623,
        0.8968121409416199
      ],
      "min": [
        -0.9069885611534119,
        -0.9929695129394531,
        -0.9974144697189331
      ],
      "type": "VEC3"
    },
    {
      "bufferView": 1,
      "byteOffset": 173792,
      "componentType": 5126,
      "count": 648,
      "max": [
        1.0,
        1.0
      ],
      "min": [
        0.0,
        0.0
      ],
      "type": "VEC2"
    },
    {
      "bufferView": 0,
      "byteOffset": 472704,
      "componentType": 5125,
      "count": 3444,
      "type": "SCALAR"
    },
    {
      "bufferView": 2,
      "byteOffset": 536928,
      "componentType": 5126,
      "count": 1649,
      "max": [
        83.95063018798828,
        83.95063018798828,
        83.95063018798828
      ],
      "min": [
        -83.95063018798828,
        -83.95063018798828,
        -83.95063018798828
      ],
      "type": "VEC3"
    },
    {
      "bufferView": 2,
      "byteOffset": 556716,
      "componentType": 5126,
      "count": 1649,
      "max": [
        1.0,
        1.0,
        1.0
      ],
      "min": [
        -1.0,
        -1.0,
        -1.0
      ],
      "type": "VEC3"
    },
    {
      "bufferView": 1,
      "byteOffset": 178976,
      "componentType": 5126,
      "count": 1649,
      "max": [
        0.8750001192092896,
        1.0000001192092896
      ],
      "min": [
        0.125,
        0.0
      ],
      "type": "VEC2"
    },
    {
      "bufferView": 0,
      "byteOffset": 486480,
      "componentType": 5125,
      "count": 9216,
      "type": "SCALAR"
    },
    {
      "bufferView": 2,
      "byteOffset": 576504,
      "componentType": 5126,
      "count": 1649,
      "max": [
        83.95063018798828,
        83.95063018798828,
        83.95063018798828
      ],
      "min": [
        -83.95063018798828,
        -83.95063018798828,
        -83.95063018798828
      ],
      "type": "VEC3"
    },
    {
      "bufferView": 2,
      "byteOffset": 596292,
      "componentType": 5126,
      "count": 1649,
      "max": [
        1.0,
        1.0,
        1.0
      ],
      "min": [
        -1.0,
        -1.0,
        -1.0
      ],
      "type": "VEC3"
    },
    {
      "bufferView": 1,
      "byteOffset": 192168,
      "componentType": 5126,
      "count": 1649,
      "max": [
        0.8750001192092896,
        1.0000001192092896
      ],
      "min": [
        0.125,
        0.0
      ],
      "type": "VEC2"
    },
    {
      "bufferView": 0,
      "byteOffset": 523344,
      "componentType": 5125,
      "count": 9216,
      "type": "SCALAR"
    },
    {
      "bufferView": 2,
      "byteOffset": 616080,
      "componentType": 5126,
      "count": 2345,
      "max": [
        202.7352294921875,
        -0.5385111570358276,
        110.57312774658203
      ],
      "min": [
        172.1028289794922,
        -68.89069366455078,
        -110.57311248779297
      ],
      "type": "VEC3"
    },
    {
      "bufferView": 2,
      "byteOffset": 644220,
      "componentType": 5126,
      "count": 2345,
      "max": [
        0.996455729007721,
        0.9982695579528809,
        0.9996679425239563
      ],
      "min": [
        -0.9962131977081299,
        -0.998114287853241,
        -0.9996680617332458
      ],
      "type": "VEC3"
    },
    {
      "bufferView": 1,
      "byteOffset": 205360,
      "componentType": 5126,
      "count": 2345,
      "max": [
        0.43750011920928955,
        0.5625001192092896
      ],
      "min": [
        0.3125000298023224,
        0.4375000298023224
      ],
      "type": "VEC2"
    },
    {
      "bufferView": 0,
      "byteOffset": 560208,
      "componentType": 5125,
      "count": 11520,
      "type": "SCALAR"
    }
  ],
  "asset": {
    "extras": {
      "author": "Ehyla's3D (https://sketchfab.com/earenasgc)",
      "license": "CC-BY-4.0 (http://creativecommons.org/licenses/by/4.0/)",
      "source": "https://sketchfab.com/3d-models/teddy-bear-631df4d1146b406f8255aa6192b69233",
      "title": "Teddy Bear"
    },
    "generator": "Sketchfab-15.29.0",
    "version": "2.0"
  },
  "bufferViews": [
    {
      "buffer": 0,
      "byteLength": 606288,
      "name": "floatBufferViews",
      "target": 34963
    },
    {
      "buffer": 0,
      "byteLength": 224120,
      "byteOffset": 606288,
      "byteStride": 8,
      "name": "floatBufferViews",
      "target": 34962
    },
    {
      "buffer": 0,
      "byteLength": 672360,
      "byteOffset": 830408,
      "byteStride": 12,
      "name": "floatBufferViews",
      "target": 34962
    }
  ],
  "buffers": [
    {
      "byteLength": 1502768,
      "uri": "scene.bin"
    }
  ],
  "materials": [
    {
      "doubleSided": true,
      "name": "OSITO",
      "pbrMetallicRoughness": {
        "baseColorFactor": [
          0.4577,
          0.286639,
          0.19515,
          1.0
        ],
        "metallicFactor": 0.0,
        "roughnessFactor": 0.9451977283661609
      }
    },
    {
      "doubleSided": true,
      "name": "OSITO_2",
      "pbrMetallicRoughness": {
        "baseColorFactor": [
          0.774506,
          0.547294,
          0.329493,
          1.0
        ],
        "metallicFactor": 0.0,
        "roughnessFactor": 0.8995628702461824
      }
    },
    {
      "doubleSided": true,
      "name": "TELESCOPIO",
      "pbrMetallicRoughness": {
        "baseColorFactor": [
          0.925814,
          0.403365,
          0.454754,
          1.0
        ],
        "metallicFactor": 0.0,
        "roughnessFactor": 0.9102541436540288
      }
    },
    {
      "doubleSided": true,
      "name": "PAJITA",
      "pbrMetallicRoughness": {
        "baseColorFactor": [
          0.0,
          0.0,
          0.0,
          1.0
        ],
        "metallicFactor": 0.0
      }
    }
  ],
  "meshes": [
    {
      "name": "Cube.070_OSITO_0",
      "primitives": [
        {
          "attributes": {
            "NORMAL": 1,
            "POSITION": 0,
            "TEXCOORD_0": 2
          },
          "indices": 3,
          "material": 0,
          "mode": 4
        }
      ]
    },
    {
      "name": "Cube.071_OSITO_0",
      "primitives": [
        {
          "attributes": {
            "NORMAL": 5,
            "POSITION": 4,
            "TEXCOORD_0": 6
          },
          "indices": 7,
          "material": 0,
          "mode": 4
        }
      ]
    },
    {
      "name": "Cube.072_OSITO 2_0",
      "primitives": [
        {
          "attributes": {
            "NORMAL": 9,
            "POSITION": 8,
            "TEXCOORD_0": 10
          },
          "indices": 11,
          "material": 1,
          "mode": 4
        }
      ]
    },
    {
      "name": "Cube.073_OSITO 2_0",
      "primitives": [
        {
          "attributes": {
            "NORMAL": 13,
            "POSITION": 12,
            "TEXCOORD_0": 14
          },
          "indices": 15,
          "material": 1,
          "mode": 4
        }
      ]
    },
    {
      "name": "Cube.074_TELESCOPIO_0",
      "primitives": [
        {
          "attributes": {
            "NORMAL": 17,
            "POSITION": 16,
            "TEXCOORD_0": 18
          },
          "indices": 19,
          "material": 2,
          "mode": 4
        }
      ]
    },
    {
      "name": "Cube.075_PAJITA_0",
      "primitives": [
        {
          "attributes": {
            "NORMAL": 21,
            "POSITION": 20,
            "TEXCOORD_0": 22
          },
          "indices": 23,
          "material": 3,
          "mode": 4
        }
      ]
    },
    {
      "name": "NurbsPath.026_PAJITA_0",
      "primitives": [
        {
          "attributes": {
            "NORMAL": 25,
            "POSITION": 24,
            "TEXCOORD_0": 26
          },
          "indices": 27,
          "material": 3,
          "mode": 4
        }
      ]
    },
    {
      "name": "Cube.076_PAJITA_0",
      "primitives": [
        {
          "attributes": {
            "NORMAL": 29,
            "POSITION": 28,
            "TEXCOORD_0": 30
          },
          "indices": 31,
          "material": 3,
          "mode": 4
        }
      ]
    },
    {
      "name": "Cube.077_PAJITA_0",
      "primitives": [
        {
          "attributes": {
            "NORMAL": 33,
            "POSITION": 32,
            "TEXCOORD_0": 34
          },
          "indices": 35,
          "material": 3,
          "mode": 4
        }
      ]
    },
    {
      "name": "Cube.078_OSITO 2_0",
      "primitives": [
        {
          "attributes": {
            "NORMAL": 37,
            "POSITION": 36,
            "TEXCOORD_0": 38
          },
          "indices": 39,
          "material": 1,
          "mode": 4
        }
      ]
    }
  ],
  "nodes": [
    {
      "children": [
        1
      ],
      "matrix": [
        1.0,
        0.0,
        0.0,
        0.0,
        0.0,
        2.220446049250313e-16,
        -1.0,
        0.0,
        0.0,
        1.0,
        2.220446049250313e-16,
        0.0,
        0.0,
        0.0,
        0.0,
        1.0
      ],
      "name": "Sketchfab_model"
    },
    {
      "children": [
        2
      ],
      "matrix": [
        0.009999999776482582,
        0.0,
        0.0,
        0.0,
        0.0,
        0.0,
        0.009999999776482582,
        0.0,
        0.0,
        -0.009999999776482582,
        0.0,
        0.0,
        0.0,
        0.0,
        0.0,
        1.0
      ],
      "name": "79bae948733a4c14b8b994884129a16d.fbx"
    },
    {
      "children": [
        3,
        5,
        7,
        9,
        11,
        13,
        15,
        17,
        19,
        21
      ],
      "name": "RootNode"
    },
    {
      "children": [
        4
      ],
      "matrix": [
        0.07346606565190479,
        5.1096241142922923e-17,
        0.011933270690270515,
        0.0,
        1.944176607739003e-09,
        0.07442893832921883,
        -1.1969141890206488e-08,
        0.0,
        -0.013369713098800593,
        1.3585654491028645e-08,
        0.08230938908177485,
        0.0,
        -82.63251495361328,
        127.83478546142578,
        -49.111019134521484,
        1.0
      ],
      "name": "Cube.070"
    },
    {
      "mesh": 0,
      "name": "Cube.070_OSITO_0"
    },
    {
      "children": [
        6
      ],
      "matrix": [
        0.07529732630083387,
        4.487882971016483e-18,
        0.012230726785601035,
        0.0,
        1.9926383807134533e-09,
        0.07628419250249761,
        -1.2267491975304349e-08,
        0.0,
        -0.012689087672038657,
        1.2894037051462158e-08,
        0.07811918225711807,
        0.0,
        -82.63251495361328,
        114.54041290283203,
        -49.111019134521484,
        1.0
      ],
      "name": "Cube.071"
    },
    {
      "mesh": 1,
      "name": "Cube.071_OSITO_0"
    },
    {
      "children": [
        8
      ],
      "matrix": [
        0.07346606565190479,
        5.1096241142922923e-17,
        0.011933270690270515,
        0.0,
        1.944176607739003e-09,
        0.07442893832921883,
        -1.1969141890206488e-08,
        0.0,
        -0.013369713098800593,
        1.3585654491028645e-08,
        0.08230938908177485,
        0.0,
        -82.63251495361328,
        127.83478546142578,
        -49.111019134521484,
        1.0
      ],
      "name": "Cube.072"
    },
    {
      "mesh": 2,
      "name": "Cube.072_OSITO 2_0"
    },
    {
      "children": [
        10
      ],
      "matrix": [
        0.07529732630083387,
        4.487882971016483e-18,
        0.012230726785601035,
        0.0,
        1.9926383807134533e-09,
        0.07628419250249761,
        -1.2267491975304349e-08,
        0.0,
        -0.012689087672038657,
        1.2894037051462158e-08,
        0.07811918225711807,
        0.0,
        -82.63251495361328,
        114.54041290283203,
        -49.111019134521484,
        1.0
      ],
      "name": "Cube.073"
    },
    {
      "mesh": 3,
      "name": "Cube.073_OSITO 2_0"
    },
    {
      "children": [
        12
      ],
      "matrix": [
        0.07346606565190479,
        5.1096241142922923e-17,
        0.011933270690270515,
        0.0,
        1.944176607739003e-09,
        0.07442893832921883,
        -1.1969141890206488e-08,
        0.0,
        -0.013369713098800593,
        1.3585654491028645e-08,
        0.08230938908177485,
        0.0,
        -82.63251495361328,
        127.83478546142578,
        -49.111019134521484,
        1.0
      ],
      "name": "Cube.074"
    },
    {
      "mesh": 4,
      "name": "Cube.074_TELESCOPIO_0"
    },
    {
      "children": [
        14
      ],
      "matrix": [
        0.0029546097506738464,
        -0.0007749297993641323,
        0.0004799240663859542,
        0.0,
        0.0023650409897508413,
        0.009255212762687743,
        0.0003841586890800784,
        0.0,
        -0.0015328171368327417,
        3.494188086761147e-10,
        0.009436652684174662,
        0.0,
        -76.42391204833984,
        125.38485717773438,
        -48.1535530090332,
        1.0
      ],
      "name": "Cube.075"
    },
    {
      "mesh": 5,
      "name": "Cube.075_PAJITA_0"
    },
    {
      "children": [
        16
      ],
      "matrix": [
        -0.0011438219279257132,
        -9.844963426467191e-10,
        0.007041833498230171,
        0.0,
        -0.007041833498229688,
        2.982191582068303e-09,
        -0.0011438219279252184,
        0.0,
        -2.7857663266287662e-09,
        -0.0071341251023106815,
        -1.4498980535949341e-09,
        0.0,
        -76.59127807617188,
        124.60990905761719,
        -48.186683654785156,
        1.0
      ],
      "name": "NurbsPath.026"
    },
    {
      "mesh": 6,
      "name": "NurbsPath.026_PAJITA_0"
    },
    {
      "children": [
        18
      ],
      "matrix": [
        0.0033966524213677094,
        0.00014321748617928404,
        -0.0005061381570055222,
        0.0,
        -0.00036435725378013216,
        0.008179061272982855,
        -0.0001308147835839077,
        0.0,
        0.0010384799134607247,
        0.00015844251462294816,
        0.007013988181111566,
        0.0,
        -76.77079772949219,
        126.73872375488281,
        -50.356143951416016,
        1.0
      ],
      "name": "Cube.076"
    },
    {
      "mesh": 7,
      "name": "Cube.076_PAJITA_0"
    },
    {
      "children": [
        20
      ],
      "matrix": [
        0.0030505806455030826,
        0.00014321770469615793,
        0.0015771443717484748,
        0.0,
        -0.0002189170499172583,
        0.008179061249921972,
        -0.0003192873603426851,
        0.0,
        -0.0032621739301838203,
        0.00015844263101103247,
        0.006295449574306651,
        0.0,
        -77.4600830078125,
        126.73872375488281,
        -46.112613677978516,
        1.0
      ],
      "name": "Cube.077"
    },
    {
      "mesh": 8,
      "name": "Cube.077_PAJITA_0"
    },
    {
      "children": [
        22
      ],
      "matrix": [
        0.07529732630083387,
        4.487882971016483e-18,
        0.012230726785601035,
        0.0,
        1.9926383807134533e-09,
        0.07628419250249761,
        -1.2267491975304349e-08,
        0.0,
        -0.012689087672038657,
        1.2894037051462158e-08,
        0.07811918225711807,
        0.0,
        -83.39984130859375,
        114.30485534667969,
        -49.23566436767578,
        1.0
      ],
      "name": "Cube.078"
    },
    {
      "mesh": 9,
      "name": "Cube.078_OSITO 2_0"
    }
  ],
  "scene": 0,
  "scenes": [
    {
      "name": "Sketchfab_Scene",
      "nodes": [
        0
      ]
    }
  ]
}
